<?xml version="1.0" encoding="UTF-8" standalone="no"?>
<!DOCTYPE svg PUBLIC "-//W3C//DTD SVG 1.1//EN" "http://www.w3.org/Graphics/SVG/1.1/DTD/svg11.dtd">
<svg width="100%" height="100%" viewBox="0 0 154 109" version="1.1" xmlns="http://www.w3.org/2000/svg" xmlns:xlink="http://www.w3.org/1999/xlink" xml:space="preserve" xmlns:serif="http://www.serif.com/" style="fill-rule:evenodd;clip-rule:evenodd;stroke-linejoin:round;stroke-miterlimit:2;">
    <g transform="matrix(1,0,0,1,-23,-45.5)">
        <g transform="matrix(1,0,0,1,-295.674,-404.375)">
            <g transform="matrix(1,0,0,1,352.184,487.928)">
                <path d="M0,-7.885L-8.272,10.217L7.202,10.217L0,-7.885ZM-13.138,21.41L-16.934,30.168L-31.435,30.168L0,-38.053L30.072,30.168L15.571,30.168L11.971,21.41L-13.138,21.41Z" style="fill:white;fill-rule:nonzero;"/>
            </g>
            <g transform="matrix(1,0,0,1,429.944,464.374)">
                <path d="M0,42.53C2.726,42.53 4.574,42.239 6.132,41.557C8.856,40.389 10.608,37.469 10.608,34.452C10.608,31.63 8.856,28.614 6.424,27.446C5.062,26.667 2.628,26.278 0.098,26.278L-4.963,26.278L-4.963,42.53L0,42.53ZM-1.265,15.085C4.672,15.085 7.98,12.36 7.98,7.495C7.98,2.823 4.478,0.001 -1.265,0.001L-4.963,0.001L-4.963,15.085L-1.265,15.085ZM-17.712,-11.191L-1.752,-11.191C6.91,-11.191 11.29,-10.316 14.599,-8.077C18.881,-5.157 21.411,0.196 21.411,6.327C21.411,12.458 19.367,16.157 13.82,19.952C16.837,21.218 18.491,22.19 19.757,23.456C22.287,25.985 23.941,30.657 23.941,35.426C23.941,41.167 21.8,46.325 18.103,49.342C14.015,52.749 10.122,53.721 1.266,53.721L-17.712,53.721L-17.712,-11.191Z" style="fill:white;fill-rule:nonzero;"/>
            </g>
            <g transform="matrix(1,0,0,1,339.202,542.359)">
                <path d="M0,4.51C0,8.826 -0.894,11.43 -3.071,13.297C-4.899,14.852 -7.231,15.629 -10.264,15.629C-13.297,15.629 -15.629,14.852 -17.457,13.297C-19.634,11.43 -20.528,8.826 -20.528,4.51L-20.528,-11.119L-15.435,-11.119L-15.435,4.627C-15.435,8.67 -13.53,11.041 -10.264,11.041C-6.998,11.041 -5.093,8.67 -5.093,4.627L-5.093,-11.119L0,-11.119L0,4.51Z" style="fill:white;fill-rule:nonzero;"/>
            </g>
            <g transform="matrix(1,0,0,1,347.057,531.24)">
                <path d="M0,25.932L-5.093,25.932L-5.093,0L-3.693,0L11.547,15.28L11.547,0L16.64,0L16.64,25.932L15.007,25.932L0,10.77L0,25.932Z" style="fill:white;fill-rule:nonzero;"/>
            </g>
            <g transform="matrix(1,0,0,1,0,476.412)">
                <rect x="366.46" y="54.828" width="5.093" height="25.932" style="fill:white;"/>
            </g>
            <g transform="matrix(1,0,0,1,387.766,542.203)">
                <path d="M0,4.006L-8.359,4.006L-8.359,14.969L-13.452,14.969L-13.452,-10.963L-0.078,-10.963L-0.078,-6.492L-8.359,-6.492L-8.359,-0.467L0,-0.467L0,4.006Z" style="fill:white;fill-rule:nonzero;"/>
            </g>
            <g transform="matrix(1,0,0,1,395.193,544.071)">
                <path d="M0,0.271C0,5.169 4.004,9.175 8.825,9.175C13.686,9.175 17.65,5.13 17.65,0.154C17.65,-4.784 13.646,-8.905 8.825,-8.905C3.927,-8.905 0,-4.823 0,0.271M22.978,0.117C22.978,7.814 16.912,13.646 8.864,13.646C0.661,13.646 -5.327,7.892 -5.327,-0.04C-5.327,-7.583 0.816,-13.375 8.825,-13.375C16.912,-13.375 22.978,-7.583 22.978,0.117" style="fill:white;fill-rule:nonzero;"/>
            </g>
            <g transform="matrix(1,0,0,1,427.699,545.431)">
                <path d="M0,-2.451C1.244,-2.451 1.633,-2.488 2.216,-2.762C3.344,-3.305 4.082,-4.627 4.082,-6.221C4.082,-8.359 2.721,-9.721 0.622,-9.721L-1.944,-9.721L-1.944,-2.451L0,-2.451ZM1.633,-14.191C6.453,-14.191 9.331,-11.236 9.331,-6.26C9.331,-3.967 8.553,-1.75 7.348,-0.428C6.687,0.272 6.064,0.621 4.16,1.438C4.121,1.438 3.965,1.516 3.654,1.633L12.597,11.74L6.221,11.74L-1.944,2.41L-1.944,11.74L-7.037,11.74L-7.037,-14.191L1.633,-14.191Z" style="fill:white;fill-rule:nonzero;"/>
            </g>
            <g transform="matrix(1,0,0,1,465.024,557.172)">
                <path d="M0,-25.932L1.206,-25.932L7.038,0L1.828,0L-0.933,-13.84L-7.542,0L-9.408,0L-16.057,-13.452L-18.545,0L-23.716,0L-18.545,-25.932L-17.301,-25.932L-8.476,-8.748L0,-25.932Z" style="fill:white;fill-rule:nonzero;"/>
            </g>
            <g transform="matrix(0,-1,-1,0,391.046,505.386)">
                <path d="M-6.355,-6.355C-9.865,-6.355 -12.71,-3.51 -12.71,0C-12.71,3.51 -9.865,6.355 -6.355,6.355C-2.845,6.355 0,3.51 0,0C0,-3.51 -2.845,-6.355 -6.355,-6.355" style="fill:white;fill-rule:nonzero;"/>
            </g>
            <g transform="matrix(0,-1,-1,0,460.356,505.386)">
                <path d="M-6.355,-6.355C-9.865,-6.355 -12.71,-3.51 -12.71,0C-12.71,3.51 -9.865,6.355 -6.355,6.355C-2.845,6.355 0,3.51 0,0C0,-3.51 -2.845,-6.355 -6.355,-6.355" style="fill:white;fill-rule:nonzero;"/>
            </g>
        </g>
        <g id="Layer1">
        </g>
    </g>
</svg>
