<?xml version="1.0" encoding="UTF-8" standalone="no"?>
<!DOCTYPE svg PUBLIC "-//W3C//DTD SVG 1.1//EN" "http://www.w3.org/Graphics/SVG/1.1/DTD/svg11.dtd">
<svg width="100%" height="100%" viewBox="0 0 489 58" version="1.1" xmlns="http://www.w3.org/2000/svg" xmlns:xlink="http://www.w3.org/1999/xlink" xml:space="preserve" xmlns:serif="http://www.serif.com/" style="fill-rule:evenodd;clip-rule:evenodd;stroke-linejoin:round;stroke-miterlimit:2;">
    <g transform="matrix(1,0,0,1,-139.959,-348.01)">
        <g transform="matrix(1,0,0,1,165.893,379.404)">
            <path d="M0,-6.503L-6.825,8.431L5.941,8.431L0,-6.503ZM-10.839,17.665L-13.971,24.891L-25.934,24.891L0,-31.394L24.81,24.891L12.847,24.891L9.876,17.665L-10.839,17.665Z" style="fill:rgb(0,0,255);fill-rule:nonzero;"/>
        </g>
        <g transform="matrix(1,0,0,1,233.26,359.973)">
            <path d="M0,35.088C2.249,35.088 3.774,34.847 5.059,34.285C7.307,33.321 8.752,30.913 8.752,28.423C8.752,26.095 7.307,23.606 5.299,22.643C4.175,22 2.168,21.679 0.081,21.679L-4.095,21.679L-4.095,35.088L0,35.088ZM-1.043,12.445C3.854,12.445 6.584,10.197 6.584,6.183C6.584,2.329 3.693,-0 -1.043,-0L-4.095,-0L-4.095,12.445L-1.043,12.445ZM-14.613,-9.233L-1.445,-9.233C5.701,-9.233 9.314,-8.511 12.044,-6.664C15.577,-4.255 17.665,0.161 17.665,5.219C17.665,10.277 15.978,13.329 11.401,16.46C13.891,17.504 15.255,18.307 16.299,19.351C18.387,21.438 19.752,25.292 19.752,29.227C19.752,33.964 17.985,38.219 14.935,40.708C11.562,43.519 8.351,44.321 1.044,44.321L-14.613,44.321L-14.613,-9.233Z" style="fill:rgb(0,0,255);fill-rule:nonzero;"/>
        </g>
        <g transform="matrix(1,0,0,1,329.147,373.703)">
            <path d="M0,9.314C0,18.227 -1.847,23.606 -6.343,27.46C-10.117,30.671 -14.935,32.277 -21.197,32.277C-27.46,32.277 -32.277,30.671 -36.051,27.46C-40.547,23.606 -42.394,18.227 -42.394,9.314L-42.394,-22.963L-31.876,-22.963L-31.876,9.555C-31.876,17.905 -27.942,22.803 -21.197,22.803C-14.453,22.803 -10.519,17.905 -10.519,9.555L-10.519,-22.963L0,-22.963L0,9.314Z" style="fill:rgb(0,0,255);fill-rule:nonzero;"/>
        </g>
        <g transform="matrix(1,0,0,1,350.185,350.74)">
            <path d="M0,53.555L-10.518,53.555L-10.518,0L-7.628,0L23.847,31.555L23.847,0L34.365,0L34.365,53.555L30.993,53.555L0,22.241L0,53.555Z" style="fill:rgb(0,0,255);fill-rule:nonzero;"/>
        </g>
        <g transform="matrix(1,0,0,1,0,143.035)">
            <rect x="395.071" y="207.705" width="10.518" height="53.555" style="fill:rgb(0,0,255);"/>
        </g>
        <g transform="matrix(1,0,0,1,443.888,373.382)">
            <path d="M0,8.271L-17.263,8.271L-17.263,30.913L-27.78,30.913L-27.78,-22.642L-0.16,-22.642L-0.16,-13.408L-17.263,-13.408L-17.263,-0.963L0,-0.963L0,8.271Z" style="fill:rgb(0,0,255);fill-rule:nonzero;"/>
        </g>
        <g transform="matrix(1,0,0,1,460.043,377.236)">
            <path d="M0,0.563C0,10.68 8.27,18.95 18.226,18.95C28.263,18.95 36.452,10.599 36.452,0.322C36.452,-9.875 28.182,-18.386 18.226,-18.386C8.109,-18.386 0,-9.956 0,0.563M47.452,0.242C47.452,16.139 34.927,28.183 18.307,28.183C1.364,28.183 -11,16.3 -11,-0.08C-11,-15.656 1.686,-27.62 18.226,-27.62C34.927,-27.62 47.452,-15.656 47.452,0.242" style="fill:rgb(0,0,255);fill-rule:nonzero;"/>
        </g>
        <g transform="matrix(1,0,0,1,531.986,380.047)">
            <path d="M0,-5.059C2.569,-5.059 3.373,-5.139 4.577,-5.701C6.905,-6.825 8.431,-9.555 8.431,-12.847C8.431,-17.263 5.621,-20.074 1.285,-20.074L-4.014,-20.074L-4.014,-5.059L0,-5.059ZM3.373,-29.307C13.329,-29.307 19.271,-23.205 19.271,-12.928C19.271,-8.19 17.665,-3.614 15.176,-0.884C13.811,0.562 12.526,1.284 8.592,2.97C8.512,2.97 8.19,3.131 7.548,3.372L26.015,24.248L12.847,24.248L-4.014,4.978L-4.014,24.248L-14.532,24.248L-14.532,-29.307L3.373,-29.307Z" style="fill:rgb(0,0,255);fill-rule:nonzero;"/>
        </g>
        <g transform="matrix(1,0,0,1,613.887,404.295)">
            <path d="M0,-53.555L2.489,-53.555L14.533,0L3.773,0L-1.927,-28.584L-15.576,0L-19.431,0L-33.16,-27.781L-38.299,0L-48.978,0L-38.299,-53.555L-35.729,-53.555L-17.504,-18.066L0,-53.555Z" style="fill:rgb(0,0,255);fill-rule:nonzero;"/>
        </g>
        <g transform="matrix(0,-1,-1,0,199.395,392.038)">
            <path d="M-6.355,-6.355C-9.865,-6.355 -12.71,-3.51 -12.71,0C-12.71,3.51 -9.865,6.355 -6.355,6.355C-2.845,6.355 0,3.51 0,0C0,-3.51 -2.845,-6.355 -6.355,-6.355" style="fill:rgb(0,0,255);fill-rule:nonzero;"/>
        </g>
        <g transform="matrix(0,-1,-1,0,260.986,392.038)">
            <path d="M-6.355,-6.355C-9.865,-6.355 -12.71,-3.51 -12.71,0C-12.71,3.51 -9.865,6.355 -6.355,6.355C-2.845,6.355 0,3.51 0,0C0,-3.51 -2.845,-6.355 -6.355,-6.355" style="fill:rgb(0,0,255);fill-rule:nonzero;"/>
        </g>
    </g>
</svg>
