<?xml version="1.0" encoding="UTF-8" standalone="no"?>
<!DOCTYPE svg PUBLIC "-//W3C//DTD SVG 1.1//EN" "http://www.w3.org/Graphics/SVG/1.1/DTD/svg11.dtd">
<svg width="100%" height="100%" viewBox="0 0 2250 2250" version="1.1" xmlns="http://www.w3.org/2000/svg" xmlns:xlink="http://www.w3.org/1999/xlink" xml:space="preserve" xmlns:serif="http://www.serif.com/" style="fill-rule:evenodd;clip-rule:evenodd;stroke-linejoin:round;stroke-miterlimit:2;">
    <g transform="matrix(2.08333,0,0,2.08333,0,0)">
        <g transform="matrix(1,0,0,1,0,12.075)">
            <circle cx="540" cy="527.925" r="540" style="fill:rgb(32,0,205);"/>
        </g>
        <g transform="matrix(6.2674,0,0,6.2674,-1927.66,-2493.33)">
            <g transform="matrix(1,0,0,1,352.184,487.928)">
                <path d="M0,-7.885L-8.272,10.217L7.202,10.217L0,-7.885ZM-13.138,21.41L-16.934,30.168L-31.435,30.168L0,-38.053L30.072,30.168L15.571,30.168L11.971,21.41L-13.138,21.41Z" style="fill:white;fill-rule:nonzero;"/>
            </g>
            <g transform="matrix(1,0,0,1,429.944,464.374)">
                <path d="M0,42.53C2.726,42.53 4.574,42.239 6.132,41.557C8.856,40.389 10.608,37.469 10.608,34.452C10.608,31.63 8.856,28.614 6.424,27.446C5.062,26.667 2.628,26.278 0.098,26.278L-4.963,26.278L-4.963,42.53L0,42.53ZM-1.265,15.085C4.672,15.085 7.98,12.36 7.98,7.495C7.98,2.823 4.478,0.001 -1.265,0.001L-4.963,0.001L-4.963,15.085L-1.265,15.085ZM-17.712,-11.191L-1.752,-11.191C6.91,-11.191 11.29,-10.316 14.599,-8.077C18.881,-5.157 21.411,0.196 21.411,6.327C21.411,12.458 19.367,16.157 13.82,19.952C16.837,21.218 18.491,22.19 19.757,23.456C22.287,25.985 23.941,30.657 23.941,35.426C23.941,41.167 21.8,46.325 18.103,49.342C14.015,52.749 10.122,53.721 1.266,53.721L-17.712,53.721L-17.712,-11.191Z" style="fill:white;fill-rule:nonzero;"/>
            </g>
            <g transform="matrix(0,-1,-1,0,391.046,505.386)">
                <path d="M-6.355,-6.355C-9.865,-6.355 -12.71,-3.51 -12.71,0C-12.71,3.51 -9.865,6.355 -6.355,6.355C-2.845,6.355 0,3.51 0,0C0,-3.51 -2.845,-6.355 -6.355,-6.355" style="fill:white;fill-rule:nonzero;"/>
            </g>
            <g transform="matrix(0,-1,-1,0,460.356,505.386)">
                <path d="M-6.355,-6.355C-9.865,-6.355 -12.71,-3.51 -12.71,0C-12.71,3.51 -9.865,6.355 -6.355,6.355C-2.845,6.355 0,3.51 0,0C0,-3.51 -2.845,-6.355 -6.355,-6.355" style="fill:white;fill-rule:nonzero;"/>
            </g>
        </g>
    </g>
</svg>
